# xmcd
#
# Track frame offsets:
#	150
#	23395
#	43242
#	63232
#	82806
#	101306
#	124915
#	145428
#	166268
#	182168
#	198426
#	225161
#
# Disc length: 3202 seconds
#
# Revision: 0
# Processed by: cddbd v1.5.2PL0 Copyright (c) Steve Scherf et al.
# Submitted via: audiograbber 1.83.01
#
DISCID=900c800c
DTITLE=Queen - A Kind Of Magic [CD-R]
DYEAR=1986
DGENRE=Rock
TTITLE0=One Vision
TTITLE1=A Kind Of Magic
TTITLE2=One Year Of Love
TTITLE3=Pain Is So Close To Pleasure
TTITLE4=Friends Will Be Friends
TTITLE5=Who Wants To Live Forever
TTITLE6=Gimme The Prize (Kurgan's Theme)
TTITLE7=Don't Lose Your Head
TTITLE8=Princes Of The Universe
TTITLE9=A Kind Of 'A Kind Of Magic' [extra magical ingredients]
TTITLE10=Friends Will Be Friends Will Be Friends.... [extra magical ingredients
TTITLE10=]
TTITLE11=Forever [extra magical ingredients]
EXTD=
EXTT0=
EXTT1=
EXTT2=
EXTT3=
EXTT4=
EXTT5=
EXTT6=
EXTT7=
EXTT8=
EXTT9=
EXTT10=
EXTT11=
PLAYORDER=
